<svg version="1.1" id="_x31_" xmlns="http://www.w3.org/2000/svg" x="0" y="0" viewBox="0 0 651.78 84" style="enable-background:new 0 0 651.78 84" xml:space="preserve"><style>.st0{fill:#547ac4}</style><path d="M.91 6.07h22.37c12.4 0 24.17 4.66 24.17 18.87 0 8.16-4.88 14.52-13.25 16.43v.21c10.49.85 16.96 7.84 16.96 18.76 0 4.88-3.18 20.78-27.35 20.78H.91V6.07zm7.63 32.86h15.37c7.31 0 15.26-3.5 15.26-13.14 0-3.07-1.59-12.72-16.01-12.72H8.54v25.86zm0 35.19h14.63c11.02 0 19.72-4.35 19.72-14.2 0-9.86-6.57-14.63-18.76-14.63H8.54v28.83zM63.31 58.22c.85 9.96 8.37 17.81 18.23 17.81 7.42 0 13.14-4.13 15.9-8.59l5.41 4.45c-5.83 7.42-13.14 10.5-21.31 10.5-14.73 0-25.65-11.13-25.65-26.08S66.81 30.23 80.9 30.23c15.05.11 23.74 11.24 23.74 24.81v3.18H63.31zm33.71-5.73c0-9.44-6.04-15.9-16.11-15.9-9.12 0-17.38 7.74-17.38 15.9h33.49zM609.53 58.22c.85 9.96 8.37 17.81 18.23 17.81 7.42 0 13.14-4.13 15.9-8.59l5.41 4.45c-5.83 7.42-13.14 10.5-21.31 10.5-14.73 0-25.65-11.13-25.65-26.08s10.92-26.08 25.02-26.08c15.05.11 23.74 11.24 23.74 24.81v3.18h-41.34zm33.71-5.73c0-9.44-6.04-15.9-16.11-15.9-9.12 0-17.38 7.74-17.38 15.9h33.49zM140.98 43.27c-2.32-4.03-6.15-6.68-11.73-6.68-5.34 0-11.27 2.12-11.27 7.42 0 4.66 3.6 6.36 10.68 7.84l7.78 1.7c7.55 1.59 13.24 6.57 13.24 13.57 0 10.81-10.57 15.26-21.14 15.26-8.25 0-15.79-2.65-20.9-9.65l6.62-4.13c3.14 4.45 7.9 7.42 14.28 7.42 6.27 0 12.77-2.54 12.77-8.27 0-4.98-4.64-6.68-10.34-7.95l-7.43-1.59c-3.72-.85-13.94-3.6-13.94-13.04 0-10.28 9.87-14.95 20.09-14.95 7.55 0 14.63 2.44 18.12 8.9l-6.83 4.15zM159.17 82.39V37.87h-10.49v-6.36h10.49v-16.8h7v16.8h10.62v6.36h-10.62v44.52h-7z"/><path class="st0" d="M185.97 65.74c1.38 6.25 5.19 10.28 11.87 10.28 11.13 0 13.25-9.43 13.25-18.66V6.07h7.63v54.49c0 10.07-4.98 22.47-21.09 22.47-10.28 0-17.7-5.41-19.4-15.69l7.74-1.6zM250.9 82.39c-15.37 0-26.29-11.13-26.29-26.08s10.92-26.08 26.29-26.08c15.48 0 26.39 11.13 26.39 26.08s-10.91 26.08-26.39 26.08zm0-45.8c-11.45 0-18.66 8.59-18.66 19.72 0 11.13 7.21 19.72 18.66 19.72 11.55 0 18.76-8.59 18.76-19.72.01-11.13-7.2-19.72-18.76-19.72zM283.72.98h7v38.8h.21c4.56-6.68 12.72-9.54 19.29-9.54 15.48 0 26.4 11.13 26.4 26.08S325.7 82.4 310.22 82.4c-6.57 0-14.73-2.86-19.29-9.54h-.21v8.27h-7V.98zm26.5 35.61c-11.45 0-19.82 8.59-19.82 19.72 0 11.13 8.37 19.72 19.82 19.72 11.55 0 18.76-8.59 18.76-19.72 0-11.13-7.21-19.72-18.76-19.72zM368.19 43.27c-2.12-4.03-5.62-6.68-10.71-6.68-4.88 0-10.28 2.12-10.28 7.42 0 4.66 3.29 6.36 9.75 7.84l7.1 1.7c6.89 1.59 12.08 6.57 12.08 13.57 0 10.81-9.65 15.26-19.29 15.26-7.53 0-14.42-2.65-19.08-9.65l6.04-4.13c2.86 4.45 7.21 7.42 13.04 7.42 5.72 0 11.66-2.54 11.66-8.27 0-4.98-4.24-6.68-9.43-7.95l-6.78-1.59c-3.39-.85-12.72-3.6-12.72-13.04 0-10.28 9.01-14.95 18.34-14.95 6.89 0 13.36 2.44 16.54 8.9l-6.26 4.15z"/><path d="M416.09 83.02c-18.31 0-32.03-16.64-32.03-39.43s13.71-39.43 32.03-39.43 32.03 16.64 32.03 39.43-13.72 39.43-32.03 39.43zm0-71.87c-15.8 0-25.26 15.16-25.26 32.44 0 17.28 9.46 32.44 25.26 32.44s25.26-15.16 25.26-32.44c0-17.28-9.46-32.44-25.26-32.44zM464.45 31.51c.32 2.65.32 5.3.32 7.95h.21c3.07-5.41 10.07-9.22 16.64-9.22 12.62 0 18.66 7.1 18.66 19.4v31.48h-7V53.66c0-11.02-3.07-17.07-13.46-17.07-1.48 0-15.05.95-15.05 19.08v25.44h-7V42.42c0-2.65-.32-7.31-.53-10.92h7.21zM518.73 81.11h-7V.98h7v80.13z"/><path d="M535.43 21.6c-3.11 0-6.22-2.59-6.22-6.22s3.11-6.22 6.22-6.22 6.22 2.59 6.22 6.22c0 3.62-3.11 6.22-6.22 6.22z" style="fill:#df2476"/><path d="M558.85 31.51c.32 2.65.32 5.3.32 7.95h.21c3.07-5.41 10.07-9.22 16.64-9.22 12.61 0 18.66 7.1 18.66 19.4v31.48h-7V53.66c0-11.02-3.07-17.07-13.46-17.07-1.48 0-15.05.95-15.05 19.08v25.44h-7V42.42c0-2.65-.32-7.31-.53-10.92h7.21zM531.93 31.51h7v49.61h-7z"/></svg>